#!OML:ASF H:\GeneralSubjects\Female5\Project 1\Capture day 1\Session 1\Female5.ASF
:FULLY-SPECIFIED
:DEGREES
161
root 3.35569 16.8041 2.09168 -170.737 -25.7769 -176.956
lowerback 4.22373 3.32871 1.26439
upperback -14.7264 2.98422 -1.82702
thorax -19.0246 0.351184 -3.20867
lowerneck -14.5927 9.41217 10.7338
upperneck 33.86 12.516 -9.96968
head 15.8611 4.57563 -4.02595
rclavicle -4.25399e-014 -1.43125e-014
rhumerus -11.6791 -23.1041 24.2113
rradius 35.5437
rwrist -3.94352
rhand -64.9764 -39.318
rfingers 7.12502
rthumb -36.8753 -65.4146
lclavicle -4.25399e-014 -1.43125e-014
lhumerus -11.2908 28.407 -12.0193
lradius 40.6466
lwrist -8.61273
lhand -54.652 67.9716
lfingers 7.12502
lthumb -27.0472 -96.0546
rfemur 8.04148 34.6646 30.6503
rtibia -9.25522
rfoot -38.4394 -32.3369
rtoes 18.2737
lfemur 8.33815 -39.3699 -24.8664
ltibia -2.74635
lfoot -55.9911 -3.59275
ltoes -6.84849
162
root 3.35616 16.8039 2.09849 -170.748 -25.798 -176.898
lowerback 4.22397 3.33121 1.35049
upperback -14.7131 2.99999 -1.85137
thorax -18.9987 0.345253 -3.28752
lowerneck -14.9804 9.42597 10.7107
upperneck 34.1214 12.5285 -9.96585
head 16.0845 4.55555 -4.02082
rclavicle -7.81224e-014 -4.21423e-014
rhumerus -12.3526 -21.2565 24.272
rradius 35.3909
rwrist -5.79924
rhand -64.8713 -40.0022
rfingers 7.12502
rthumb -36.7759 -66.1243
lclavicle -7.81224e-014 -4.21423e-014
lhumerus -11.4754 27.7013 -12.0109
lradius 39.9195
lwrist -7.69208
lhand -54.6722 68.7294
lfingers 7.12502
lthumb -27.0666 -96.8095
rfemur 8.04862 34.7011 30.7228
rtibia -9.29364
rfoot -38.6378 -32.3797
rtoes 18.5458
lfemur 8.30457 -39.4025 -24.7973
ltibia -2.76345
lfoot -55.9826 -2.97243
ltoes -7.24473
163
root 3.35587 16.8031 2.10463 -170.745 -25.774 -176.877
lowerback 4.23425 3.34206 1.39176
upperback -14.7469 3.01166 -1.86241
thorax -19.048 0.338117 -3.32652
lowerneck -15.004 9.41415 10.7803
upperneck 34.1697 12.5041 -10.016
head 16.1228 4.54371 -4.06274
rclavicle -1.41137e-014 -3.97569e-015
rhumerus -12.7701 -19.9938 24.1121
rradius 34.9782
rwrist -7.31878
rhand -65.0432 -37.9228
rfingers 7.12502
rthumb -36.9385 -64.0031
lclavicle -1.41137e-014 -3.97569e-015
lhumerus -11.697 26.929 -12.0215
lradius 39.1896
lwrist -6.96307
lhand -54.5549 68.5468
lfingers 7.12502
lthumb -26.9544 -96.6442
rfemur 8.00734 34.7754 30.7166
rtibia -9.24884
rfoot -38.6837 -32.4042
rtoes 18.5857
lfemur 8.28547 -39.382 -24.7639
ltibia -2.81586
lfoot -55.8537 -2.57016
ltoes -7.54387
164
root 3.35505 16.8021 2.10956 -170.743 -25.7006 -176.902
lowerback 4.17602 3.36704 1.41684
upperback -14.7612 3.04009 -1.88269
thorax -19.0221 0.343555 -3.36601
lowerneck -14.7399 9.40301 10.8882
upperneck 33.9565 12.4983 -10.1129
head 15.9712 4.55967 -4.1212
rclavicle 5.40694e-014 3.65764e-014
rhumerus -13.0968 -19.1052 23.8881
rradius 34.3927
rwrist -8.29322
rhand -64.8477 -38.3569
rfingers 7.12502
rthumb -36.7535 -64.4847
lclavicle 5.40694e-014 3.65764e-014
lhumerus -11.8615 26.6816 -11.9472
lradius 38.414
lwrist -6.77385
lhand -54.4322 68.2435
lfingers 7.12502
lthumb -26.8369 -96.3591
rfemur 7.98239 34.8878 30.67
rtibia -9.15485
rfoot -38.7266 -32.9464
rtoes 15.7042
lfemur 8.38082 -39.4841 -24.8691
ltibia -2.88657
lfoot -55.8476 -2.80158
ltoes -6.96511
165
root 3.35705 16.8002 2.1156 -170.704 -25.6261 -176.957
lowerback 4.07744 3.36031 1.36184
upperback -14.7443 3.02106 -1.87911
thorax -18.9354 0.346247 -3.3212
lowerneck -14.7208 9.53549 11.1492
upperneck 33.7774 12.6667 -10.2065
head 15.9378 4.66619 -4.161
rclavicle 1.8487e-014 -1.43125e-014
rhumerus -13.5911 -16.9128 23.7849
rradius 34.2023
rwrist -10.4771
rhand -64.8742 -38.5284
rfingers 7.12502
rthumb -36.7786 -64.6498
lclavicle 1.8487e-014 -1.43125e-014
lhumerus -12.2017 26.415 -11.9382
lradius 37.7757
lwrist -6.33411
lhand -54.5032 67.7385
lfingers 7.12502
lthumb -26.9049 -95.8436
rfemur 7.91385 35.0078 30.5924
rtibia -9.0603
rfoot -38.9954 -33.8004
rtoes 11.3731
lfemur 8.48077 -39.7717 -25.0345
ltibia -2.9084
lfoot -56.0614 -2.9295
ltoes -6.29413
166
root 3.3582 16.7965 2.12123 -170.644 -25.5703 -177.059
lowerback 3.99229 3.35639 1.24442
upperback -14.7146 3.00114 -1.87704
thorax -18.8445 0.359202 -3.24426
lowerneck -14.9129 9.5266 10.8456
upperneck 33.8339 12.6493 -9.94168
head 15.9524 4.65025 -3.99113
rclavicle -7.45443e-014 -3.81667e-014
rhumerus -14.0372 -14.4495 23.8073
rradius 33.9866
rwrist -12.9711
rhand -65.4169 -35.4355
rfingers 7.12502
rthumb -37.292 -61.424
lclavicle -7.45443e-014 -3.81667e-014
lhumerus -12.7333 25.5277 -11.9753
lradius 37.3634
lwrist -5.04328
lhand -54.7405 67.2207
lfingers 7.12502
lthumb -27.1319 -95.2906
rfemur 7.9243 35.0974 30.4831
rtibia -9.10213
rfoot -39.3476 -33.9909
rtoes 10.5834
lfemur 8.57541 -40.0836 -25.2595
ltibia -2.90631
lfoot -56.4785 -2.86163
ltoes -6.73428
167
root 3.35661 16.7921 2.12623 -170.615 -25.5252 -177.144
lowerback 3.9549 3.38606 1.19495
upperback -14.708 3.03072 -1.90664
thorax -18.809 0.378001 -3.25449
lowerneck -14.9665 9.45097 10.441
upperneck 33.9162 12.5239 -9.56413
head 15.9099 4.59237 -3.78305
rclavicle -2.90226e-014 -2.8625e-014
rhumerus -14.7383 -12.9065 23.6973
rradius 33.8222
rwrist -14.0508
rhand -65.4044 -36.0708
rfingers 7.12502
rthumb -37.2801 -62.0623
lclavicle -2.90226e-014 -2.8625e-014
lhumerus -13.0909 24.9562 -11.8472
lradius 36.8945
lwrist -4.1578
lhand -54.9336 68.0668
lfingers 7.12502
lthumb -27.3166 -96.1077
rfemur 7.99522 35.1703 30.4099
rtibia -9.18264
rfoot -39.4845 -33.8548
rtoes 11.4542
lfemur 8.6766 -40.3162 -25.4644
ltibia -2.9161
lfoot -56.893 -2.90538
ltoes -7.43614
168
root 3.35523 16.7876 2.13281 -170.552 -25.4828 -177.202
lowerback 3.95647 3.40496 1.16116
upperback -14.7796 3.03401 -1.91102
thorax -18.9093 0.373115 -3.24259
lowerneck -15.1754 9.59425 10.712
upperneck 34.1875 12.655 -9.55707
head 16.1414 4.66506 -3.8059
rclavicle -8.17005e-014 -9.54166e-015
rhumerus -15.1777 -12.198 23.3423
rradius 33.4375
rwrist -13.6939
rhand -64.7348 -39.9761
rfingers 7.12502
rthumb -36.6467 -66.1311
lclavicle -8.17005e-014 -9.54166e-015
lhumerus -13.4327 24.3382 -11.6908
lradius 36.2992
lwrist -3.35944
lhand -55.197 68.985
lfingers 7.12502
lthumb -27.5686 -96.986
rfemur 7.92065 35.2518 30.288
rtibia -9.15934
rfoot -39.6414 -33.7729
rtoes 11.6137
lfemur 8.71625 -40.6314 -25.5944
ltibia -2.95068
lfoot -57.2324 -2.93414
ltoes -7.52279
169
root 3.35442 16.7835 2.14111 -170.441 -25.4609 -177.286
lowerback 3.96813 3.41065 1.08561
upperback -14.8821 3.0106 -1.88365
thorax -19.0654 0.360917 -3.1666
lowerneck -15.0598 9.58358 10.7122
upperneck 34.1795 12.6755 -9.66462
head 16.124 4.65696 -3.85471
rclavicle -2.04748e-014 3.26007e-014
rhumerus -15.6808 -11.0718 22.9793
rradius 33.1585
rwrist -14.8985
rhand -64.6492 -37.2429
rfingers 7.12502
rthumb -36.5657 -63.4184
lclavicle -2.04748e-014 3.26007e-014
lhumerus -14.0109 23.0623 -11.56
lradius 35.8815
lwrist -1.80972
lhand -55.4646 69.2725
lfingers 7.12502
lthumb -27.8244 -97.2323
rfemur 7.81582 35.3092 30.0941
rtibia -9.20007
rfoot -39.762 -33.4685
rtoes 12.7511
lfemur 8.62107 -40.7654 -25.6368
ltibia -2.98639
lfoot -57.2345 -2.75911
ltoes -7.2679
170
root 3.35352 16.7812 2.15014 -170.4 -25.4333 -177.328
lowerback 3.98963 3.42749 1.06356
upperback -14.9369 3.02465 -1.8461
thorax -19.158 0.36672 -3.11555
lowerneck -14.9792 9.59883 10.9054
upperneck 34.0723 12.7547 -9.98767
head 16.1154 4.67567 -4.01323
rclavicle -2.90226e-014 -4.45278e-014
rhumerus -16.222 -10.3318 22.751
rradius 32.7567
rwrist -15.6056
rhand -64.5511 -36.5345
rfingers 7.12502
rthumb -36.4729 -62.7334
lclavicle -2.90226e-014 -4.45278e-014
lhumerus -14.5758 22.1073 -11.3717
lradius 35.5644
lwrist -0.516793
lhand -55.5481 70.3026
lfingers 7.12502
lthumb -27.9043 -98.2495
rfemur 7.76575 35.3752 29.9889
rtibia -9.22296
rfoot -39.7772 -33.213
rtoes 13.7914
lfemur 8.54645 -40.7185 -25.6396
ltibia -2.9649
lfoot -57.077 -2.08075
ltoes -7.40592
171
root 3.35258 16.7797 2.15974 -170.406 -25.4188 -177.321
lowerback 3.95097 3.45302 1.14284
upperback -14.9353 3.07128 -1.8447
thorax -19.1206 0.377666 -3.16447
lowerneck -14.9286 9.64783 11.0833
upperneck 33.9316 12.8376 -10.142
head 16.0788 4.72348 -4.08801
rclavicle -8.15017e-015 -1.74931e-014
rhumerus -16.9154 -9.39743 22.4937
rradius 32.5303
rwrist -16.687
rhand -64.2786 -37.7964
rfingers 7.12502
rthumb -36.2149 -64.0598
lclavicle -8.15017e-015 -1.74931e-014
lhumerus -14.9863 21.6536 -11.2001
lradius 35.1584
lwrist 0.340946
lhand -55.3836 69.2394
lfingers 7.12502
lthumb -27.747 -97.2118
rfemur 7.71071 35.4382 29.9627
rtibia -9.16257
rfoot -39.9491 -33.2368
rtoes 13.7268
lfemur 8.62297 -40.9367 -25.7223
ltibia -2.96307
lfoot -57.3731 -0.951746
ltoes -8.59351
172
root 3.35451 16.7785 2.17205 -170.363 -25.4593 -177.306
lowerback 3.87247 3.46213 1.23281
upperback -14.9149 3.09191 -1.88997
thorax -19.0279 0.372967 -3.26566
lowerneck -14.9928 9.65572 11.1745
upperneck 33.8656 12.8043 -10.0711
head 16.0568 4.73989 -4.07062
rclavicle -2.94201e-014 -2.78299e-014
rhumerus -17.7438 -7.65602 22.1784
rradius 32.4348
rwrist -18.7584
rhand -63.5756 -41.3686
rfingers 7.12502
rthumb -35.5488 -67.7947
lclavicle -2.94201e-014 -2.78299e-014
lhumerus -15.395 21.1271 -11.1016
lradius 34.7625
lwrist 1.22106
lhand -55.0472 67.6989
lfingers 7.12502
lthumb -27.4253 -95.7227
rfemur 7.55776 35.4584 29.906
rtibia -9.07963
rfoot -40.0462 -33.2515
rtoes 13.5531
lfemur 8.59075 -41.1894 -25.7214
ltibia -3.01862
lfoot -57.7409 -0.443947
ltoes -9.52786
